<mxfile host="app.diagrams.net" agent="Mozilla/5.0 (Windows NT 10.0; Win64; x64; rv:133.0) Gecko/20100101 Firefox/133.0" version="25.0.3">
  <diagram name="Page-1" id="e7e014a7-5840-1c2e-5031-d8a46d1fe8dd">
    <mxGraphModel dx="2962" dy="978" grid="1" gridSize="10" guides="1" tooltips="1" connect="1" arrows="1" fold="1" page="1" pageScale="1" pageWidth="1169" pageHeight="826" background="none" math="0" shadow="0">
      <root>
        <mxCell id="0" />
        <mxCell id="1" parent="0" />
        <mxCell id="0zrXrCIrXiYti2BW50LE-237" value="" style="rounded=1;whiteSpace=wrap;html=1;" vertex="1" parent="1">
          <mxGeometry x="-120" y="100" width="1120" height="1030" as="geometry" />
        </mxCell>
        <mxCell id="0zrXrCIrXiYti2BW50LE-168" value="" style="rounded=1;whiteSpace=wrap;html=1;" vertex="1" parent="1">
          <mxGeometry x="200" y="860" width="150" height="200" as="geometry" />
        </mxCell>
        <mxCell id="0zrXrCIrXiYti2BW50LE-166" value="" style="rounded=1;whiteSpace=wrap;html=1;" vertex="1" parent="1">
          <mxGeometry x="220" y="300" width="250" height="370" as="geometry" />
        </mxCell>
        <mxCell id="0zrXrCIrXiYti2BW50LE-164" value="" style="rounded=1;whiteSpace=wrap;html=1;" vertex="1" parent="1">
          <mxGeometry x="-90" y="200" width="290" height="680" as="geometry" />
        </mxCell>
        <mxCell id="0zrXrCIrXiYti2BW50LE-161" value="" style="rounded=1;whiteSpace=wrap;html=1;" vertex="1" parent="1">
          <mxGeometry x="490" y="270" width="150" height="660" as="geometry" />
        </mxCell>
        <mxCell id="0zrXrCIrXiYti2BW50LE-160" value="" style="rounded=1;whiteSpace=wrap;html=1;" vertex="1" parent="1">
          <mxGeometry x="660" y="260" width="310" height="580" as="geometry" />
        </mxCell>
        <mxCell id="0zrXrCIrXiYti2BW50LE-88" value="Get Playwright &#xa;binaries" style="rounded=1;" vertex="1" parent="1">
          <mxGeometry x="510" y="320" width="110" height="50" as="geometry" />
        </mxCell>
        <mxCell id="0zrXrCIrXiYti2BW50LE-172" style="edgeStyle=orthogonalEdgeStyle;rounded=0;orthogonalLoop=1;jettySize=auto;html=1;exitX=0.5;exitY=1;exitDx=0;exitDy=0;entryX=0.5;entryY=0;entryDx=0;entryDy=0;" edge="1" parent="1" source="0zrXrCIrXiYti2BW50LE-63" target="0zrXrCIrXiYti2BW50LE-170">
          <mxGeometry relative="1" as="geometry" />
        </mxCell>
        <mxCell id="0zrXrCIrXiYti2BW50LE-63" value="Build Chirp.web" style="rounded=1;" vertex="1" parent="1">
          <mxGeometry x="840" y="413" width="110" height="50" as="geometry" />
        </mxCell>
        <mxCell id="0zrXrCIrXiYti2BW50LE-152" style="edgeStyle=orthogonalEdgeStyle;rounded=0;orthogonalLoop=1;jettySize=auto;html=1;entryX=0.5;entryY=0;entryDx=0;entryDy=0;" edge="1" parent="1" source="0zrXrCIrXiYti2BW50LE-58" target="0zrXrCIrXiYti2BW50LE-139">
          <mxGeometry relative="1" as="geometry" />
        </mxCell>
        <mxCell id="0zrXrCIrXiYti2BW50LE-153" style="edgeStyle=orthogonalEdgeStyle;rounded=0;orthogonalLoop=1;jettySize=auto;html=1;entryX=0.5;entryY=0;entryDx=0;entryDy=0;" edge="1" parent="1" source="0zrXrCIrXiYti2BW50LE-58" target="0zrXrCIrXiYti2BW50LE-137">
          <mxGeometry relative="1" as="geometry" />
        </mxCell>
        <mxCell id="0zrXrCIrXiYti2BW50LE-154" style="edgeStyle=orthogonalEdgeStyle;rounded=0;orthogonalLoop=1;jettySize=auto;html=1;entryX=0.5;entryY=0;entryDx=0;entryDy=0;" edge="1" parent="1" source="0zrXrCIrXiYti2BW50LE-58" target="0zrXrCIrXiYti2BW50LE-81">
          <mxGeometry relative="1" as="geometry" />
        </mxCell>
        <mxCell id="0zrXrCIrXiYti2BW50LE-155" style="edgeStyle=orthogonalEdgeStyle;rounded=0;orthogonalLoop=1;jettySize=auto;html=1;entryX=0.5;entryY=0;entryDx=0;entryDy=0;" edge="1" parent="1" source="0zrXrCIrXiYti2BW50LE-58" target="0zrXrCIrXiYti2BW50LE-82">
          <mxGeometry relative="1" as="geometry" />
        </mxCell>
        <mxCell id="0zrXrCIrXiYti2BW50LE-156" style="edgeStyle=orthogonalEdgeStyle;rounded=0;orthogonalLoop=1;jettySize=auto;html=1;entryX=0.5;entryY=0;entryDx=0;entryDy=0;" edge="1" parent="1" source="0zrXrCIrXiYti2BW50LE-58" target="0zrXrCIrXiYti2BW50LE-85">
          <mxGeometry relative="1" as="geometry" />
        </mxCell>
        <mxCell id="0zrXrCIrXiYti2BW50LE-58" value="" style="ellipse;shape=startState;fillColor=#000000;strokeColor=#000000;" vertex="1" parent="1">
          <mxGeometry x="380" y="150" width="30" height="30" as="geometry" />
        </mxCell>
        <mxCell id="0zrXrCIrXiYti2BW50LE-87" style="edgeStyle=orthogonalEdgeStyle;rounded=0;orthogonalLoop=1;jettySize=auto;html=1;exitX=0.5;exitY=1;exitDx=0;exitDy=0;entryX=0.5;entryY=0;entryDx=0;entryDy=0;" edge="1" parent="1" source="0zrXrCIrXiYti2BW50LE-81" target="0zrXrCIrXiYti2BW50LE-107">
          <mxGeometry relative="1" as="geometry">
            <mxPoint x="145" y="300" as="targetPoint" />
            <Array as="points">
              <mxPoint x="285" y="290" />
              <mxPoint x="145" y="290" />
            </Array>
          </mxGeometry>
        </mxCell>
        <mxCell id="0zrXrCIrXiYti2BW50LE-89" style="edgeStyle=orthogonalEdgeStyle;rounded=0;orthogonalLoop=1;jettySize=auto;html=1;entryX=0;entryY=0.5;entryDx=0;entryDy=0;" edge="1" parent="1" source="0zrXrCIrXiYti2BW50LE-81" target="0zrXrCIrXiYti2BW50LE-88">
          <mxGeometry relative="1" as="geometry">
            <Array as="points">
              <mxPoint x="285" y="290" />
              <mxPoint x="470" y="290" />
              <mxPoint x="470" y="345" />
            </Array>
          </mxGeometry>
        </mxCell>
        <mxCell id="0zrXrCIrXiYti2BW50LE-136" style="edgeStyle=orthogonalEdgeStyle;rounded=0;orthogonalLoop=1;jettySize=auto;html=1;entryX=0.5;entryY=0;entryDx=0;entryDy=0;" edge="1" parent="1" source="0zrXrCIrXiYti2BW50LE-81" target="0zrXrCIrXiYti2BW50LE-102">
          <mxGeometry relative="1" as="geometry" />
        </mxCell>
        <mxCell id="0zrXrCIrXiYti2BW50LE-81" value="Setup dotnet" style="rounded=1;" vertex="1" parent="1">
          <mxGeometry x="230" y="222" width="110" height="50" as="geometry" />
        </mxCell>
        <mxCell id="0zrXrCIrXiYti2BW50LE-103" style="edgeStyle=orthogonalEdgeStyle;rounded=0;orthogonalLoop=1;jettySize=auto;html=1;entryX=0.5;entryY=0;entryDx=0;entryDy=0;exitX=0.5;exitY=1;exitDx=0;exitDy=0;" edge="1" parent="1" source="0zrXrCIrXiYti2BW50LE-82" target="0zrXrCIrXiYti2BW50LE-102">
          <mxGeometry relative="1" as="geometry" />
        </mxCell>
        <mxCell id="0zrXrCIrXiYti2BW50LE-82" value="Identify  test-&#xa;directory matrix" style="rounded=1;" vertex="1" parent="1">
          <mxGeometry x="340" y="320" width="110" height="50" as="geometry" />
        </mxCell>
        <mxCell id="0zrXrCIrXiYti2BW50LE-112" style="edgeStyle=orthogonalEdgeStyle;rounded=0;orthogonalLoop=1;jettySize=auto;html=1;exitX=0.5;exitY=1;exitDx=0;exitDy=0;entryX=0.5;entryY=0;entryDx=0;entryDy=0;" edge="1" parent="1" source="0zrXrCIrXiYti2BW50LE-84" target="0zrXrCIrXiYti2BW50LE-105">
          <mxGeometry relative="1" as="geometry" />
        </mxCell>
        <mxCell id="0zrXrCIrXiYti2BW50LE-84" value="Install dotnet-ef" style="rounded=1;" vertex="1" parent="1">
          <mxGeometry x="680" y="413" width="110" height="50" as="geometry" />
        </mxCell>
        <mxCell id="0zrXrCIrXiYti2BW50LE-120" style="edgeStyle=orthogonalEdgeStyle;rounded=0;orthogonalLoop=1;jettySize=auto;html=1;entryX=0;entryY=0.5;entryDx=0;entryDy=0;exitX=0.5;exitY=1;exitDx=0;exitDy=0;" edge="1" parent="1" source="0zrXrCIrXiYti2BW50LE-224" target="0zrXrCIrXiYti2BW50LE-118">
          <mxGeometry relative="1" as="geometry">
            <mxPoint x="-15" y="360" as="sourcePoint" />
            <mxPoint x="-15" y="590" as="targetPoint" />
            <Array as="points">
              <mxPoint x="-15" y="705" />
            </Array>
          </mxGeometry>
        </mxCell>
        <mxCell id="0zrXrCIrXiYti2BW50LE-125" value="&lt;div&gt;Database&lt;/div&gt;&lt;div&gt;Successfully &lt;br&gt;&lt;/div&gt;&lt;div&gt;Uploaded&lt;br&gt;&lt;/div&gt;" style="edgeLabel;html=1;align=center;verticalAlign=middle;resizable=0;points=[];" vertex="1" connectable="0" parent="0zrXrCIrXiYti2BW50LE-120">
          <mxGeometry x="-0.1063" y="3" relative="1" as="geometry">
            <mxPoint x="-3" y="-96" as="offset" />
          </mxGeometry>
        </mxCell>
        <mxCell id="0zrXrCIrXiYti2BW50LE-127" style="edgeStyle=orthogonalEdgeStyle;rounded=0;orthogonalLoop=1;jettySize=auto;html=1;exitX=0.5;exitY=1;exitDx=0;exitDy=0;entryX=0.5;entryY=0;entryDx=0;entryDy=0;" edge="1" parent="1" source="0zrXrCIrXiYti2BW50LE-85" target="0zrXrCIrXiYti2BW50LE-126">
          <mxGeometry relative="1" as="geometry" />
        </mxCell>
        <mxCell id="0zrXrCIrXiYti2BW50LE-85" value="Download Database &#xa;from Azure" style="rounded=1;" vertex="1" parent="1">
          <mxGeometry x="-70" y="222" width="110" height="50" as="geometry" />
        </mxCell>
        <mxCell id="0zrXrCIrXiYti2BW50LE-91" style="edgeStyle=orthogonalEdgeStyle;rounded=0;orthogonalLoop=1;jettySize=auto;html=1;entryX=0.5;entryY=0;entryDx=0;entryDy=0;" edge="1" parent="1" source="0zrXrCIrXiYti2BW50LE-88" target="0zrXrCIrXiYti2BW50LE-90">
          <mxGeometry relative="1" as="geometry" />
        </mxCell>
        <mxCell id="0zrXrCIrXiYti2BW50LE-93" style="edgeStyle=orthogonalEdgeStyle;rounded=0;orthogonalLoop=1;jettySize=auto;html=1;entryX=0.5;entryY=0;entryDx=0;entryDy=0;" edge="1" parent="1" source="0zrXrCIrXiYti2BW50LE-90" target="0zrXrCIrXiYti2BW50LE-92">
          <mxGeometry relative="1" as="geometry" />
        </mxCell>
        <mxCell id="0zrXrCIrXiYti2BW50LE-90" value="Install powershell" style="rounded=1;" vertex="1" parent="1">
          <mxGeometry x="510" y="413" width="110" height="50" as="geometry" />
        </mxCell>
        <mxCell id="0zrXrCIrXiYti2BW50LE-95" style="edgeStyle=orthogonalEdgeStyle;rounded=0;orthogonalLoop=1;jettySize=auto;html=1;entryX=0.5;entryY=0;entryDx=0;entryDy=0;" edge="1" parent="1" source="0zrXrCIrXiYti2BW50LE-92" target="0zrXrCIrXiYti2BW50LE-94">
          <mxGeometry relative="1" as="geometry" />
        </mxCell>
        <mxCell id="0zrXrCIrXiYti2BW50LE-92" value="Build UItest project" style="rounded=1;" vertex="1" parent="1">
          <mxGeometry x="510" y="500" width="110" height="50" as="geometry" />
        </mxCell>
        <mxCell id="0zrXrCIrXiYti2BW50LE-97" style="edgeStyle=orthogonalEdgeStyle;rounded=0;orthogonalLoop=1;jettySize=auto;html=1;entryX=0.5;entryY=0;entryDx=0;entryDy=0;" edge="1" parent="1" source="0zrXrCIrXiYti2BW50LE-94" target="0zrXrCIrXiYti2BW50LE-96">
          <mxGeometry relative="1" as="geometry" />
        </mxCell>
        <mxCell id="0zrXrCIrXiYti2BW50LE-94" value="Build Chirp.Web &#xa;project" style="rounded=1;" vertex="1" parent="1">
          <mxGeometry x="510" y="590" width="110" height="50" as="geometry" />
        </mxCell>
        <mxCell id="0zrXrCIrXiYti2BW50LE-99" style="edgeStyle=orthogonalEdgeStyle;rounded=0;orthogonalLoop=1;jettySize=auto;html=1;entryX=0.5;entryY=0;entryDx=0;entryDy=0;" edge="1" parent="1" source="0zrXrCIrXiYti2BW50LE-96" target="0zrXrCIrXiYti2BW50LE-98">
          <mxGeometry relative="1" as="geometry" />
        </mxCell>
        <mxCell id="0zrXrCIrXiYti2BW50LE-96" value="Publish Chirp.Web &#xa;to UItest/bin" style="rounded=1;" vertex="1" parent="1">
          <mxGeometry x="510" y="680" width="110" height="50" as="geometry" />
        </mxCell>
        <mxCell id="0zrXrCIrXiYti2BW50LE-198" style="edgeStyle=orthogonalEdgeStyle;rounded=0;orthogonalLoop=1;jettySize=auto;html=1;entryX=0.5;entryY=0;entryDx=0;entryDy=0;" edge="1" parent="1" source="0zrXrCIrXiYti2BW50LE-98" target="0zrXrCIrXiYti2BW50LE-197">
          <mxGeometry relative="1" as="geometry" />
        </mxCell>
        <mxCell id="0zrXrCIrXiYti2BW50LE-98" value="Run UI tests" style="rounded=1;" vertex="1" parent="1">
          <mxGeometry x="510" y="770" width="110" height="50" as="geometry" />
        </mxCell>
        <mxCell id="0zrXrCIrXiYti2BW50LE-196" style="edgeStyle=orthogonalEdgeStyle;rounded=0;orthogonalLoop=1;jettySize=auto;html=1;exitX=0.5;exitY=1;exitDx=0;exitDy=0;entryX=0.5;entryY=0;entryDx=0;entryDy=0;" edge="1" parent="1" source="0zrXrCIrXiYti2BW50LE-102" target="0zrXrCIrXiYti2BW50LE-195">
          <mxGeometry relative="1" as="geometry" />
        </mxCell>
        <mxCell id="0zrXrCIrXiYti2BW50LE-102" value="Run tests(in parallel)" style="rounded=1;" vertex="1" parent="1">
          <mxGeometry x="230" y="500" width="110" height="50" as="geometry" />
        </mxCell>
        <mxCell id="0zrXrCIrXiYti2BW50LE-113" style="edgeStyle=orthogonalEdgeStyle;rounded=0;orthogonalLoop=1;jettySize=auto;html=1;exitX=0.5;exitY=1;exitDx=0;exitDy=0;entryX=0.5;entryY=0;entryDx=0;entryDy=0;" edge="1" parent="1" source="0zrXrCIrXiYti2BW50LE-105" target="0zrXrCIrXiYti2BW50LE-106">
          <mxGeometry relative="1" as="geometry" />
        </mxCell>
        <mxCell id="0zrXrCIrXiYti2BW50LE-105" value="Create Migration &#xa;Bundle" style="rounded=1;" vertex="1" parent="1">
          <mxGeometry x="680" y="506" width="110" height="50" as="geometry" />
        </mxCell>
        <mxCell id="0zrXrCIrXiYti2BW50LE-176" style="edgeStyle=orthogonalEdgeStyle;rounded=0;orthogonalLoop=1;jettySize=auto;html=1;entryX=0.5;entryY=0;entryDx=0;entryDy=0;" edge="1" parent="1" source="0zrXrCIrXiYti2BW50LE-106" target="0zrXrCIrXiYti2BW50LE-174">
          <mxGeometry relative="1" as="geometry" />
        </mxCell>
        <mxCell id="0zrXrCIrXiYti2BW50LE-106" value="Upload Bundle" style="rounded=1;" vertex="1" parent="1">
          <mxGeometry x="680" y="593" width="110" height="50" as="geometry" />
        </mxCell>
        <mxCell id="0zrXrCIrXiYti2BW50LE-110" style="edgeStyle=orthogonalEdgeStyle;rounded=0;orthogonalLoop=1;jettySize=auto;html=1;exitX=0.5;exitY=1;exitDx=0;exitDy=0;entryX=0.5;entryY=0;entryDx=0;entryDy=0;" edge="1" parent="1" source="0zrXrCIrXiYti2BW50LE-107" target="0zrXrCIrXiYti2BW50LE-108">
          <mxGeometry relative="1" as="geometry" />
        </mxCell>
        <mxCell id="0zrXrCIrXiYti2BW50LE-107" value="Install dotnet-ef" style="rounded=1;" vertex="1" parent="1">
          <mxGeometry x="70" y="320" width="110" height="50" as="geometry" />
        </mxCell>
        <mxCell id="0zrXrCIrXiYti2BW50LE-111" style="edgeStyle=orthogonalEdgeStyle;rounded=0;orthogonalLoop=1;jettySize=auto;html=1;exitX=0.5;exitY=1;exitDx=0;exitDy=0;entryX=0.5;entryY=0;entryDx=0;entryDy=0;" edge="1" parent="1" source="0zrXrCIrXiYti2BW50LE-108" target="0zrXrCIrXiYti2BW50LE-109">
          <mxGeometry relative="1" as="geometry" />
        </mxCell>
        <mxCell id="0zrXrCIrXiYti2BW50LE-108" value="Create Migration &#xa;Bundle" style="rounded=1;" vertex="1" parent="1">
          <mxGeometry x="70" y="413" width="110" height="50" as="geometry" />
        </mxCell>
        <mxCell id="0zrXrCIrXiYti2BW50LE-121" style="edgeStyle=orthogonalEdgeStyle;rounded=0;orthogonalLoop=1;jettySize=auto;html=1;exitX=0.5;exitY=1;exitDx=0;exitDy=0;entryX=0.5;entryY=0;entryDx=0;entryDy=0;" edge="1" parent="1" source="0zrXrCIrXiYti2BW50LE-109" target="0zrXrCIrXiYti2BW50LE-116">
          <mxGeometry relative="1" as="geometry" />
        </mxCell>
        <mxCell id="0zrXrCIrXiYti2BW50LE-109" value="Upload Bundle&#xa;Artifact" style="rounded=1;" vertex="1" parent="1">
          <mxGeometry x="70" y="500" width="110" height="50" as="geometry" />
        </mxCell>
        <mxCell id="0zrXrCIrXiYti2BW50LE-123" style="edgeStyle=orthogonalEdgeStyle;rounded=0;orthogonalLoop=1;jettySize=auto;html=1;exitX=0.5;exitY=1;exitDx=0;exitDy=0;entryX=0.5;entryY=0;entryDx=0;entryDy=0;" edge="1" parent="1" source="0zrXrCIrXiYti2BW50LE-225" target="0zrXrCIrXiYti2BW50LE-118">
          <mxGeometry relative="1" as="geometry">
            <mxPoint x="10" y="615" as="targetPoint" />
            <Array as="points">
              <mxPoint x="15" y="660" />
              <mxPoint x="125" y="660" />
            </Array>
          </mxGeometry>
        </mxCell>
        <mxCell id="0zrXrCIrXiYti2BW50LE-124" value="&lt;div&gt;Bundle&amp;nbsp;&lt;/div&gt;&lt;div&gt;exists&lt;/div&gt;" style="edgeLabel;html=1;align=center;verticalAlign=middle;resizable=0;points=[];" vertex="1" connectable="0" parent="0zrXrCIrXiYti2BW50LE-123">
          <mxGeometry x="0.1862" y="-2" relative="1" as="geometry">
            <mxPoint x="-34" y="-2" as="offset" />
          </mxGeometry>
        </mxCell>
        <mxCell id="0zrXrCIrXiYti2BW50LE-227" style="edgeStyle=orthogonalEdgeStyle;rounded=0;orthogonalLoop=1;jettySize=auto;html=1;exitX=0;exitY=0.5;exitDx=0;exitDy=0;entryX=1;entryY=0.5;entryDx=0;entryDy=0;" edge="1" parent="1" source="0zrXrCIrXiYti2BW50LE-116" target="0zrXrCIrXiYti2BW50LE-225">
          <mxGeometry relative="1" as="geometry" />
        </mxCell>
        <mxCell id="0zrXrCIrXiYti2BW50LE-116" value="Download bundle" style="rounded=1;" vertex="1" parent="1">
          <mxGeometry x="70" y="590" width="110" height="50" as="geometry" />
        </mxCell>
        <mxCell id="0zrXrCIrXiYti2BW50LE-193" style="edgeStyle=orthogonalEdgeStyle;rounded=0;orthogonalLoop=1;jettySize=auto;html=1;entryX=0.5;entryY=0;entryDx=0;entryDy=0;" edge="1" parent="1" source="0zrXrCIrXiYti2BW50LE-118" target="0zrXrCIrXiYti2BW50LE-192">
          <mxGeometry relative="1" as="geometry" />
        </mxCell>
        <mxCell id="0zrXrCIrXiYti2BW50LE-118" value="Execute bundle on&#xa;database file" style="rounded=1;" vertex="1" parent="1">
          <mxGeometry x="70" y="680" width="110" height="50" as="geometry" />
        </mxCell>
        <mxCell id="0zrXrCIrXiYti2BW50LE-228" style="edgeStyle=orthogonalEdgeStyle;rounded=0;orthogonalLoop=1;jettySize=auto;html=1;exitX=0.5;exitY=1;exitDx=0;exitDy=0;entryX=0.5;entryY=0;entryDx=0;entryDy=0;" edge="1" parent="1" source="0zrXrCIrXiYti2BW50LE-126" target="0zrXrCIrXiYti2BW50LE-224">
          <mxGeometry relative="1" as="geometry" />
        </mxCell>
        <mxCell id="0zrXrCIrXiYti2BW50LE-126" value="Upload Database &#xa;artifact" style="rounded=1;" vertex="1" parent="1">
          <mxGeometry x="-70" y="320" width="110" height="50" as="geometry" />
        </mxCell>
        <mxCell id="0zrXrCIrXiYti2BW50LE-138" style="edgeStyle=orthogonalEdgeStyle;rounded=0;orthogonalLoop=1;jettySize=auto;html=1;entryX=0.5;entryY=0;entryDx=0;entryDy=0;" edge="1" parent="1" source="0zrXrCIrXiYti2BW50LE-137" target="0zrXrCIrXiYti2BW50LE-84">
          <mxGeometry relative="1" as="geometry" />
        </mxCell>
        <mxCell id="0zrXrCIrXiYti2BW50LE-137" value="Setup dotnet" style="rounded=1;" vertex="1" parent="1">
          <mxGeometry x="680" y="320" width="110" height="50" as="geometry" />
        </mxCell>
        <mxCell id="0zrXrCIrXiYti2BW50LE-140" style="edgeStyle=orthogonalEdgeStyle;rounded=0;orthogonalLoop=1;jettySize=auto;html=1;entryX=0.5;entryY=0;entryDx=0;entryDy=0;" edge="1" parent="1" source="0zrXrCIrXiYti2BW50LE-139" target="0zrXrCIrXiYti2BW50LE-63">
          <mxGeometry relative="1" as="geometry" />
        </mxCell>
        <mxCell id="0zrXrCIrXiYti2BW50LE-139" value="Setup dotnet" style="rounded=1;" vertex="1" parent="1">
          <mxGeometry x="840" y="320" width="110" height="50" as="geometry" />
        </mxCell>
        <mxCell id="0zrXrCIrXiYti2BW50LE-189" style="edgeStyle=orthogonalEdgeStyle;rounded=0;orthogonalLoop=1;jettySize=auto;html=1;exitX=0.5;exitY=1;exitDx=0;exitDy=0;entryX=1;entryY=1;entryDx=0;entryDy=0;" edge="1" parent="1" source="0zrXrCIrXiYti2BW50LE-141" target="0zrXrCIrXiYti2BW50LE-187">
          <mxGeometry relative="1" as="geometry">
            <Array as="points">
              <mxPoint x="895" y="940" />
              <mxPoint x="368" y="940" />
              <mxPoint x="368" y="808" />
            </Array>
          </mxGeometry>
        </mxCell>
        <mxCell id="0zrXrCIrXiYti2BW50LE-141" value="" style="rhombus;whiteSpace=wrap;html=1;" vertex="1" parent="1">
          <mxGeometry x="870" y="776" width="50" height="50" as="geometry" />
        </mxCell>
        <mxCell id="0zrXrCIrXiYti2BW50LE-157" style="edgeStyle=orthogonalEdgeStyle;rounded=0;orthogonalLoop=1;jettySize=auto;html=1;entryX=0.5;entryY=0;entryDx=0;entryDy=0;" edge="1" parent="1" source="0zrXrCIrXiYti2BW50LE-147" target="0zrXrCIrXiYti2BW50LE-148">
          <mxGeometry relative="1" as="geometry" />
        </mxCell>
        <mxCell id="0zrXrCIrXiYti2BW50LE-147" value="Download artifacts&#xa;(bundle and &#xa;chirp.web bins)" style="rounded=1;" vertex="1" parent="1">
          <mxGeometry x="220" y="900" width="110" height="50" as="geometry" />
        </mxCell>
        <mxCell id="0zrXrCIrXiYti2BW50LE-221" style="edgeStyle=orthogonalEdgeStyle;rounded=0;orthogonalLoop=1;jettySize=auto;html=1;exitX=0.5;exitY=1;exitDx=0;exitDy=0;entryX=0;entryY=0.5;entryDx=0;entryDy=0;" edge="1" parent="1" source="0zrXrCIrXiYti2BW50LE-148" target="0zrXrCIrXiYti2BW50LE-158">
          <mxGeometry relative="1" as="geometry">
            <Array as="points">
              <mxPoint x="265" y="1085" />
            </Array>
          </mxGeometry>
        </mxCell>
        <mxCell id="0zrXrCIrXiYti2BW50LE-148" value="Deploy to azure" style="rounded=1;" vertex="1" parent="1">
          <mxGeometry x="220" y="990" width="110" height="50" as="geometry" />
        </mxCell>
        <mxCell id="0zrXrCIrXiYti2BW50LE-158" value="" style="ellipse;shape=startState;fillColor=#FFFFFF;strokeColor=#000000;strokeWidth=5;" vertex="1" parent="1">
          <mxGeometry x="505" y="1070" width="30" height="30" as="geometry" />
        </mxCell>
        <mxCell id="0zrXrCIrXiYti2BW50LE-162" value="UI Tests" style="text;html=1;align=center;verticalAlign=middle;whiteSpace=wrap;rounded=0;" vertex="1" parent="1">
          <mxGeometry x="535" y="280" width="60" height="30" as="geometry" />
        </mxCell>
        <mxCell id="0zrXrCIrXiYti2BW50LE-163" value="&lt;div&gt;Deployment&lt;/div&gt;&lt;div&gt;Setup&lt;br&gt;&lt;/div&gt;" style="text;html=1;align=center;verticalAlign=middle;whiteSpace=wrap;rounded=0;" vertex="1" parent="1">
          <mxGeometry x="780" y="272" width="60" height="30" as="geometry" />
        </mxCell>
        <mxCell id="0zrXrCIrXiYti2BW50LE-165" value="Test Migration" style="text;html=1;align=center;verticalAlign=middle;whiteSpace=wrap;rounded=0;" vertex="1" parent="1">
          <mxGeometry x="90" y="230" width="60" height="30" as="geometry" />
        </mxCell>
        <mxCell id="0zrXrCIrXiYti2BW50LE-167" value="Unit/Integration Tests" style="text;html=1;align=center;verticalAlign=middle;whiteSpace=wrap;rounded=0;" vertex="1" parent="1">
          <mxGeometry x="380" y="500" width="60" height="30" as="geometry" />
        </mxCell>
        <mxCell id="0zrXrCIrXiYti2BW50LE-169" value="Deployment to Azure" style="text;html=1;align=center;verticalAlign=middle;whiteSpace=wrap;rounded=0;" vertex="1" parent="1">
          <mxGeometry x="245" y="860" width="60" height="30" as="geometry" />
        </mxCell>
        <mxCell id="0zrXrCIrXiYti2BW50LE-179" style="edgeStyle=orthogonalEdgeStyle;rounded=0;orthogonalLoop=1;jettySize=auto;html=1;exitX=0.5;exitY=1;exitDx=0;exitDy=0;entryX=0.5;entryY=0;entryDx=0;entryDy=0;" edge="1" parent="1" source="0zrXrCIrXiYti2BW50LE-170" target="0zrXrCIrXiYti2BW50LE-141">
          <mxGeometry relative="1" as="geometry" />
        </mxCell>
        <mxCell id="0zrXrCIrXiYti2BW50LE-180" value="Success" style="edgeLabel;html=1;align=center;verticalAlign=middle;resizable=0;points=[];" vertex="1" connectable="0" parent="0zrXrCIrXiYti2BW50LE-179">
          <mxGeometry x="-0.2167" relative="1" as="geometry">
            <mxPoint as="offset" />
          </mxGeometry>
        </mxCell>
        <mxCell id="0zrXrCIrXiYti2BW50LE-210" style="edgeStyle=orthogonalEdgeStyle;rounded=0;orthogonalLoop=1;jettySize=auto;html=1;exitX=1;exitY=0.5;exitDx=0;exitDy=0;entryX=1;entryY=0.5;entryDx=0;entryDy=0;strokeColor=#ff0000;" edge="1" parent="1" source="0zrXrCIrXiYti2BW50LE-170" target="0zrXrCIrXiYti2BW50LE-207">
          <mxGeometry relative="1" as="geometry">
            <Array as="points">
              <mxPoint x="940" y="531" />
              <mxPoint x="940" y="1035" />
            </Array>
          </mxGeometry>
        </mxCell>
        <mxCell id="0zrXrCIrXiYti2BW50LE-218" value="Failure" style="edgeLabel;html=1;align=center;verticalAlign=middle;resizable=0;points=[];" vertex="1" connectable="0" parent="0zrXrCIrXiYti2BW50LE-210">
          <mxGeometry x="-0.4095" y="3" relative="1" as="geometry">
            <mxPoint as="offset" />
          </mxGeometry>
        </mxCell>
        <mxCell id="0zrXrCIrXiYti2BW50LE-170" value="" style="rhombus;whiteSpace=wrap;html=1;" vertex="1" parent="1">
          <mxGeometry x="870" y="506" width="50" height="50" as="geometry" />
        </mxCell>
        <mxCell id="0zrXrCIrXiYti2BW50LE-181" style="edgeStyle=orthogonalEdgeStyle;rounded=0;orthogonalLoop=1;jettySize=auto;html=1;entryX=0;entryY=0.5;entryDx=0;entryDy=0;" edge="1" parent="1" source="0zrXrCIrXiYti2BW50LE-174" target="0zrXrCIrXiYti2BW50LE-141">
          <mxGeometry relative="1" as="geometry" />
        </mxCell>
        <mxCell id="0zrXrCIrXiYti2BW50LE-182" value="Success" style="edgeLabel;html=1;align=center;verticalAlign=middle;resizable=0;points=[];" vertex="1" connectable="0" parent="0zrXrCIrXiYti2BW50LE-181">
          <mxGeometry x="-0.1618" y="2" relative="1" as="geometry">
            <mxPoint as="offset" />
          </mxGeometry>
        </mxCell>
        <mxCell id="0zrXrCIrXiYti2BW50LE-209" style="edgeStyle=orthogonalEdgeStyle;rounded=0;orthogonalLoop=1;jettySize=auto;html=1;exitX=0.5;exitY=1;exitDx=0;exitDy=0;entryX=0.75;entryY=0;entryDx=0;entryDy=0;strokeColor=#ff0000;fillColor=#ffcccc;" edge="1" parent="1" source="0zrXrCIrXiYti2BW50LE-174" target="0zrXrCIrXiYti2BW50LE-207">
          <mxGeometry relative="1" as="geometry" />
        </mxCell>
        <mxCell id="0zrXrCIrXiYti2BW50LE-215" value="Failure" style="edgeLabel;html=1;align=center;verticalAlign=middle;resizable=0;points=[];" vertex="1" connectable="0" parent="0zrXrCIrXiYti2BW50LE-209">
          <mxGeometry x="-0.7926" y="-1" relative="1" as="geometry">
            <mxPoint as="offset" />
          </mxGeometry>
        </mxCell>
        <mxCell id="0zrXrCIrXiYti2BW50LE-174" value="" style="rhombus;whiteSpace=wrap;html=1;" vertex="1" parent="1">
          <mxGeometry x="710" y="680" width="50" height="50" as="geometry" />
        </mxCell>
        <mxCell id="0zrXrCIrXiYti2BW50LE-223" style="edgeStyle=orthogonalEdgeStyle;rounded=0;orthogonalLoop=1;jettySize=auto;html=1;exitX=0.5;exitY=1;exitDx=0;exitDy=0;entryX=1;entryY=0.5;entryDx=0;entryDy=0;" edge="1" parent="1" source="0zrXrCIrXiYti2BW50LE-187" target="0zrXrCIrXiYti2BW50LE-147">
          <mxGeometry relative="1" as="geometry">
            <Array as="points">
              <mxPoint x="355" y="925" />
            </Array>
          </mxGeometry>
        </mxCell>
        <mxCell id="0zrXrCIrXiYti2BW50LE-187" value="" style="rhombus;whiteSpace=wrap;html=1;" vertex="1" parent="1">
          <mxGeometry x="330" y="770" width="50" height="50" as="geometry" />
        </mxCell>
        <mxCell id="0zrXrCIrXiYti2BW50LE-200" style="edgeStyle=orthogonalEdgeStyle;rounded=0;orthogonalLoop=1;jettySize=auto;html=1;entryX=0;entryY=0.5;entryDx=0;entryDy=0;" edge="1" parent="1" source="0zrXrCIrXiYti2BW50LE-192" target="0zrXrCIrXiYti2BW50LE-187">
          <mxGeometry relative="1" as="geometry" />
        </mxCell>
        <mxCell id="0zrXrCIrXiYti2BW50LE-203" value="Success" style="edgeLabel;html=1;align=center;verticalAlign=middle;resizable=0;points=[];" vertex="1" connectable="0" parent="0zrXrCIrXiYti2BW50LE-200">
          <mxGeometry x="0.0904" y="-2" relative="1" as="geometry">
            <mxPoint as="offset" />
          </mxGeometry>
        </mxCell>
        <mxCell id="0zrXrCIrXiYti2BW50LE-211" style="edgeStyle=orthogonalEdgeStyle;rounded=0;orthogonalLoop=1;jettySize=auto;html=1;exitX=0.5;exitY=1;exitDx=0;exitDy=0;entryX=0;entryY=0.75;entryDx=0;entryDy=0;strokeColor=#ff0000;" edge="1" parent="1" source="0zrXrCIrXiYti2BW50LE-192" target="0zrXrCIrXiYti2BW50LE-207">
          <mxGeometry relative="1" as="geometry">
            <Array as="points">
              <mxPoint x="125" y="1070" />
              <mxPoint x="360" y="1070" />
              <mxPoint x="360" y="1048" />
              <mxPoint x="640" y="1048" />
            </Array>
          </mxGeometry>
        </mxCell>
        <mxCell id="0zrXrCIrXiYti2BW50LE-213" value="Failure" style="edgeLabel;html=1;align=center;verticalAlign=middle;resizable=0;points=[];" vertex="1" connectable="0" parent="0zrXrCIrXiYti2BW50LE-211">
          <mxGeometry x="-0.7753" y="-1" relative="1" as="geometry">
            <mxPoint as="offset" />
          </mxGeometry>
        </mxCell>
        <mxCell id="0zrXrCIrXiYti2BW50LE-192" value="" style="rhombus;whiteSpace=wrap;html=1;" vertex="1" parent="1">
          <mxGeometry x="100" y="770" width="50" height="50" as="geometry" />
        </mxCell>
        <mxCell id="0zrXrCIrXiYti2BW50LE-199" style="edgeStyle=orthogonalEdgeStyle;rounded=0;orthogonalLoop=1;jettySize=auto;html=1;entryX=0.5;entryY=0;entryDx=0;entryDy=0;exitX=0.5;exitY=1;exitDx=0;exitDy=0;" edge="1" parent="1" source="0zrXrCIrXiYti2BW50LE-195" target="0zrXrCIrXiYti2BW50LE-187">
          <mxGeometry relative="1" as="geometry" />
        </mxCell>
        <mxCell id="0zrXrCIrXiYti2BW50LE-202" value="Success" style="edgeLabel;html=1;align=center;verticalAlign=middle;resizable=0;points=[];" vertex="1" connectable="0" parent="0zrXrCIrXiYti2BW50LE-199">
          <mxGeometry x="-0.0344" y="-1" relative="1" as="geometry">
            <mxPoint x="-1" as="offset" />
          </mxGeometry>
        </mxCell>
        <mxCell id="0zrXrCIrXiYti2BW50LE-212" style="edgeStyle=orthogonalEdgeStyle;rounded=0;orthogonalLoop=1;jettySize=auto;html=1;exitX=1;exitY=0.5;exitDx=0;exitDy=0;entryX=0;entryY=0;entryDx=0;entryDy=0;strokeColor=#ff0000;" edge="1" parent="1" source="0zrXrCIrXiYti2BW50LE-195" target="0zrXrCIrXiYti2BW50LE-207">
          <mxGeometry relative="1" as="geometry">
            <Array as="points">
              <mxPoint x="410" y="618" />
              <mxPoint x="410" y="1010" />
            </Array>
          </mxGeometry>
        </mxCell>
        <mxCell id="0zrXrCIrXiYti2BW50LE-214" value="Failure" style="edgeLabel;html=1;align=center;verticalAlign=middle;resizable=0;points=[];" vertex="1" connectable="0" parent="0zrXrCIrXiYti2BW50LE-212">
          <mxGeometry x="-0.1882" y="-1" relative="1" as="geometry">
            <mxPoint x="-49" y="-203" as="offset" />
          </mxGeometry>
        </mxCell>
        <mxCell id="0zrXrCIrXiYti2BW50LE-195" value="" style="rhombus;whiteSpace=wrap;html=1;" vertex="1" parent="1">
          <mxGeometry x="260" y="593" width="50" height="50" as="geometry" />
        </mxCell>
        <mxCell id="0zrXrCIrXiYti2BW50LE-201" style="edgeStyle=orthogonalEdgeStyle;rounded=0;orthogonalLoop=1;jettySize=auto;html=1;exitX=0;exitY=0.5;exitDx=0;exitDy=0;entryX=1;entryY=0.5;entryDx=0;entryDy=0;" edge="1" parent="1" source="0zrXrCIrXiYti2BW50LE-197" target="0zrXrCIrXiYti2BW50LE-187">
          <mxGeometry relative="1" as="geometry">
            <Array as="points">
              <mxPoint x="470" y="885" />
              <mxPoint x="470" y="795" />
            </Array>
          </mxGeometry>
        </mxCell>
        <mxCell id="0zrXrCIrXiYti2BW50LE-204" value="Success" style="edgeLabel;html=1;align=center;verticalAlign=middle;resizable=0;points=[];" vertex="1" connectable="0" parent="0zrXrCIrXiYti2BW50LE-201">
          <mxGeometry x="0.0619" y="-2" relative="1" as="geometry">
            <mxPoint as="offset" />
          </mxGeometry>
        </mxCell>
        <mxCell id="0zrXrCIrXiYti2BW50LE-208" style="edgeStyle=orthogonalEdgeStyle;rounded=0;orthogonalLoop=1;jettySize=auto;html=1;exitX=1;exitY=1;exitDx=0;exitDy=0;entryX=0.25;entryY=0;entryDx=0;entryDy=0;strokeColor=#ff0000;" edge="1" parent="1" source="0zrXrCIrXiYti2BW50LE-197" target="0zrXrCIrXiYti2BW50LE-207">
          <mxGeometry relative="1" as="geometry" />
        </mxCell>
        <mxCell id="0zrXrCIrXiYti2BW50LE-217" value="Failure" style="edgeLabel;html=1;align=center;verticalAlign=middle;resizable=0;points=[];" vertex="1" connectable="0" parent="0zrXrCIrXiYti2BW50LE-208">
          <mxGeometry x="-0.3096" y="2" relative="1" as="geometry">
            <mxPoint x="-27" as="offset" />
          </mxGeometry>
        </mxCell>
        <mxCell id="0zrXrCIrXiYti2BW50LE-197" value="" style="rhombus;whiteSpace=wrap;html=1;" vertex="1" parent="1">
          <mxGeometry x="540" y="860" width="50" height="50" as="geometry" />
        </mxCell>
        <mxCell id="0zrXrCIrXiYti2BW50LE-222" style="edgeStyle=orthogonalEdgeStyle;rounded=0;orthogonalLoop=1;jettySize=auto;html=1;entryX=1;entryY=0.5;entryDx=0;entryDy=0;exitX=0.5;exitY=1;exitDx=0;exitDy=0;" edge="1" parent="1" source="0zrXrCIrXiYti2BW50LE-207" target="0zrXrCIrXiYti2BW50LE-158">
          <mxGeometry relative="1" as="geometry" />
        </mxCell>
        <mxCell id="0zrXrCIrXiYti2BW50LE-207" value="Quit on failure" style="rounded=1;" vertex="1" parent="1">
          <mxGeometry x="640" y="1010" width="110" height="50" as="geometry" />
        </mxCell>
        <mxCell id="0zrXrCIrXiYti2BW50LE-229" style="edgeStyle=orthogonalEdgeStyle;rounded=0;orthogonalLoop=1;jettySize=auto;html=1;exitX=0;exitY=0.5;exitDx=0;exitDy=0;entryX=0;entryY=1;entryDx=0;entryDy=0;strokeColor=#ff0000;" edge="1" parent="1" source="0zrXrCIrXiYti2BW50LE-224" target="0zrXrCIrXiYti2BW50LE-207">
          <mxGeometry relative="1" as="geometry">
            <Array as="points">
              <mxPoint x="-60" y="425" />
              <mxPoint x="-60" y="1070" />
              <mxPoint x="640" y="1070" />
            </Array>
          </mxGeometry>
        </mxCell>
        <mxCell id="0zrXrCIrXiYti2BW50LE-230" value="&lt;div&gt;Database&lt;/div&gt;&lt;div&gt;not &lt;br&gt;&lt;/div&gt;&lt;div&gt;successfully&lt;/div&gt;&lt;div&gt;uploaded&lt;br&gt;&lt;/div&gt;" style="edgeLabel;html=1;align=center;verticalAlign=middle;resizable=0;points=[];" vertex="1" connectable="0" parent="0zrXrCIrXiYti2BW50LE-229">
          <mxGeometry x="-0.5811" y="1" relative="1" as="geometry">
            <mxPoint x="9" y="-100" as="offset" />
          </mxGeometry>
        </mxCell>
        <mxCell id="0zrXrCIrXiYti2BW50LE-224" value="" style="rhombus;whiteSpace=wrap;html=1;" vertex="1" parent="1">
          <mxGeometry x="-40" y="400" width="50" height="50" as="geometry" />
        </mxCell>
        <mxCell id="0zrXrCIrXiYti2BW50LE-231" style="edgeStyle=orthogonalEdgeStyle;rounded=0;orthogonalLoop=1;jettySize=auto;html=1;exitX=0;exitY=1;exitDx=0;exitDy=0;entryX=0.25;entryY=1;entryDx=0;entryDy=0;strokeColor=#ff0000;" edge="1" parent="1" source="0zrXrCIrXiYti2BW50LE-225" target="0zrXrCIrXiYti2BW50LE-207">
          <mxGeometry relative="1" as="geometry">
            <Array as="points">
              <mxPoint x="3" y="1070" />
              <mxPoint x="668" y="1070" />
            </Array>
          </mxGeometry>
        </mxCell>
        <mxCell id="0zrXrCIrXiYti2BW50LE-232" value="&lt;div&gt;Bundle &lt;br&gt;&lt;/div&gt;&lt;div&gt;artifact &lt;br&gt;&lt;/div&gt;&lt;div&gt;doesn&#39;t &lt;br&gt;&lt;/div&gt;&lt;div&gt;exist&lt;br&gt;&lt;/div&gt;" style="edgeLabel;html=1;align=center;verticalAlign=middle;resizable=0;points=[];" vertex="1" connectable="0" parent="0zrXrCIrXiYti2BW50LE-231">
          <mxGeometry x="-0.498" y="-1" relative="1" as="geometry">
            <mxPoint x="-1" y="-128" as="offset" />
          </mxGeometry>
        </mxCell>
        <mxCell id="0zrXrCIrXiYti2BW50LE-225" value="" style="rhombus;whiteSpace=wrap;html=1;" vertex="1" parent="1">
          <mxGeometry x="-10" y="590" width="50" height="50" as="geometry" />
        </mxCell>
        <mxCell id="0zrXrCIrXiYti2BW50LE-236" style="edgeStyle=orthogonalEdgeStyle;rounded=0;orthogonalLoop=1;jettySize=auto;html=1;entryX=0.5;entryY=0;entryDx=0;entryDy=0;" edge="1" parent="1" source="0zrXrCIrXiYti2BW50LE-235" target="0zrXrCIrXiYti2BW50LE-58">
          <mxGeometry relative="1" as="geometry" />
        </mxCell>
        <mxCell id="0zrXrCIrXiYti2BW50LE-235" value="Push on main" style="rounded=0;" vertex="1" parent="1">
          <mxGeometry x="340" y="70" width="110" height="50" as="geometry" />
        </mxCell>
        <mxCell id="0zrXrCIrXiYti2BW50LE-238" value="&lt;b&gt;&lt;font style=&quot;font-size: 50px;&quot;&gt;Deploy to azure&lt;/font&gt;&lt;/b&gt;" style="text;html=1;align=center;verticalAlign=middle;whiteSpace=wrap;rounded=0;" vertex="1" parent="1">
          <mxGeometry x="-30" y="120" width="420" height="30" as="geometry" />
        </mxCell>
      </root>
    </mxGraphModel>
  </diagram>
</mxfile>
